<?xml version="1.0" encoding="utf-8"?>
<!DOCTYPE svg PUBLIC "-//W3C//DTD SVG 20010904//EN" "http://www.w3.org/TR/2001/REC-SVG-20010904/DTD/svg10.dtd">
<svg xmlns="http://www.w3.org/2000/svg" xml:space="preserve" xmlns:xlink="http://www.w3.org/1999/xlink" width="990" height="990" viewBox="0 0 990 990">
<defs>
<mask id="qrmask"><g fill="#ffffff">
<g transform="translate(220,44) scale(3.6666666666667)"><rect width="6" height="6"/></g>
<g transform="translate(286,44) scale(3.6666666666667)"><rect width="6" height="6"/></g>
<g transform="translate(308,44) scale(3.6666666666667)"><rect width="6" height="6"/></g>
<g transform="translate(330,44) scale(3.6666666666667)"><rect width="6" height="6"/></g>
<g transform="translate(352,44) scale(3.6666666666667)"><rect width="6" height="6"/></g>
<g transform="translate(418,44) scale(3.6666666666667)"><rect width="6" height="6"/></g>
<g transform="translate(440,44) scale(3.6666666666667)"><rect width="6" height="6"/></g>
<g transform="translate(506,44) scale(3.6666666666667)"><rect width="6" height="6"/></g>
<g transform="translate(528,44) scale(3.6666666666667)"><rect width="6" height="6"/></g>
<g transform="translate(572,44) scale(3.6666666666667)"><rect width="6" height="6"/></g>
<g transform="translate(594,44) scale(3.6666666666667)"><rect width="6" height="6"/></g>
<g transform="translate(660,44) scale(3.6666666666667)"><rect width="6" height="6"/></g>
<g transform="translate(726,44) scale(3.6666666666667)"><rect width="6" height="6"/></g>
<g transform="translate(220,66) scale(3.6666666666667)"><rect width="6" height="6"/></g>
<g transform="translate(286,66) scale(3.6666666666667)"><rect width="6" height="6"/></g>
<g transform="translate(308,66) scale(3.6666666666667)"><rect width="6" height="6"/></g>
<g transform="translate(352,66) scale(3.6666666666667)"><rect width="6" height="6"/></g>
<g transform="translate(374,66) scale(3.6666666666667)"><rect width="6" height="6"/></g>
<g transform="translate(418,66) scale(3.6666666666667)"><rect width="6" height="6"/></g>
<g transform="translate(484,66) scale(3.6666666666667)"><rect width="6" height="6"/></g>
<g transform="translate(528,66) scale(3.6666666666667)"><rect width="6" height="6"/></g>
<g transform="translate(550,66) scale(3.6666666666667)"><rect width="6" height="6"/></g>
<g transform="translate(594,66) scale(3.6666666666667)"><rect width="6" height="6"/></g>
<g transform="translate(616,66) scale(3.6666666666667)"><rect width="6" height="6"/></g>
<g transform="translate(638,66) scale(3.6666666666667)"><rect width="6" height="6"/></g>
<g transform="translate(704,66) scale(3.6666666666667)"><rect width="6" height="6"/></g>
<g transform="translate(726,66) scale(3.6666666666667)"><rect width="6" height="6"/></g>
<g transform="translate(220,88) scale(3.6666666666667)"><rect width="6" height="6"/></g>
<g transform="translate(242,88) scale(3.6666666666667)"><rect width="6" height="6"/></g>
<g transform="translate(264,88) scale(3.6666666666667)"><rect width="6" height="6"/></g>
<g transform="translate(308,88) scale(3.6666666666667)"><rect width="6" height="6"/></g>
<g transform="translate(330,88) scale(3.6666666666667)"><rect width="6" height="6"/></g>
<g transform="translate(352,88) scale(3.6666666666667)"><rect width="6" height="6"/></g>
<g transform="translate(374,88) scale(3.6666666666667)"><rect width="6" height="6"/></g>
<g transform="translate(396,88) scale(3.6666666666667)"><rect width="6" height="6"/></g>
<g transform="translate(462,88) scale(3.6666666666667)"><rect width="6" height="6"/></g>
<g transform="translate(484,88) scale(3.6666666666667)"><rect width="6" height="6"/></g>
<g transform="translate(506,88) scale(3.6666666666667)"><rect width="6" height="6"/></g>
<g transform="translate(550,88) scale(3.6666666666667)"><rect width="6" height="6"/></g>
<g transform="translate(594,88) scale(3.6666666666667)"><rect width="6" height="6"/></g>
<g transform="translate(638,88) scale(3.6666666666667)"><rect width="6" height="6"/></g>
<g transform="translate(308,110) scale(3.6666666666667)"><rect width="6" height="6"/></g>
<g transform="translate(396,110) scale(3.6666666666667)"><rect width="6" height="6"/></g>
<g transform="translate(418,110) scale(3.6666666666667)"><rect width="6" height="6"/></g>
<g transform="translate(506,110) scale(3.6666666666667)"><rect width="6" height="6"/></g>
<g transform="translate(528,110) scale(3.6666666666667)"><rect width="6" height="6"/></g>
<g transform="translate(550,110) scale(3.6666666666667)"><rect width="6" height="6"/></g>
<g transform="translate(572,110) scale(3.6666666666667)"><rect width="6" height="6"/></g>
<g transform="translate(616,110) scale(3.6666666666667)"><rect width="6" height="6"/></g>
<g transform="translate(638,110) scale(3.6666666666667)"><rect width="6" height="6"/></g>
<g transform="translate(660,110) scale(3.6666666666667)"><rect width="6" height="6"/></g>
<g transform="translate(704,110) scale(3.6666666666667)"><rect width="6" height="6"/></g>
<g transform="translate(748,110) scale(3.6666666666667)"><rect width="6" height="6"/></g>
<g transform="translate(264,132) scale(3.6666666666667)"><rect width="6" height="6"/></g>
<g transform="translate(286,132) scale(3.6666666666667)"><rect width="6" height="6"/></g>
<g transform="translate(352,132) scale(3.6666666666667)"><rect width="6" height="6"/></g>
<g transform="translate(374,132) scale(3.6666666666667)"><rect width="6" height="6"/></g>
<g transform="translate(418,132) scale(3.6666666666667)"><rect width="6" height="6"/></g>
<g transform="translate(440,132) scale(3.6666666666667)"><rect width="6" height="6"/></g>
<g transform="translate(484,132) scale(3.6666666666667)"><rect width="6" height="6"/></g>
<g transform="translate(528,132) scale(3.6666666666667)"><rect width="6" height="6"/></g>
<g transform="translate(550,132) scale(3.6666666666667)"><rect width="6" height="6"/></g>
<g transform="translate(572,132) scale(3.6666666666667)"><rect width="6" height="6"/></g>
<g transform="translate(594,132) scale(3.6666666666667)"><rect width="6" height="6"/></g>
<g transform="translate(638,132) scale(3.6666666666667)"><rect width="6" height="6"/></g>
<g transform="translate(748,132) scale(3.6666666666667)"><rect width="6" height="6"/></g>
<g transform="translate(220,154) scale(3.6666666666667)"><rect width="6" height="6"/></g>
<g transform="translate(264,154) scale(3.6666666666667)"><rect width="6" height="6"/></g>
<g transform="translate(308,154) scale(3.6666666666667)"><rect width="6" height="6"/></g>
<g transform="translate(396,154) scale(3.6666666666667)"><rect width="6" height="6"/></g>
<g transform="translate(418,154) scale(3.6666666666667)"><rect width="6" height="6"/></g>
<g transform="translate(462,154) scale(3.6666666666667)"><rect width="6" height="6"/></g>
<g transform="translate(484,154) scale(3.6666666666667)"><rect width="6" height="6"/></g>
<g transform="translate(528,154) scale(3.6666666666667)"><rect width="6" height="6"/></g>
<g transform="translate(572,154) scale(3.6666666666667)"><rect width="6" height="6"/></g>
<g transform="translate(616,154) scale(3.6666666666667)"><rect width="6" height="6"/></g>
<g transform="translate(660,154) scale(3.6666666666667)"><rect width="6" height="6"/></g>
<g transform="translate(726,154) scale(3.6666666666667)"><rect width="6" height="6"/></g>
<g transform="translate(220,176) scale(3.6666666666667)"><rect width="6" height="6"/></g>
<g transform="translate(264,176) scale(3.6666666666667)"><rect width="6" height="6"/></g>
<g transform="translate(308,176) scale(3.6666666666667)"><rect width="6" height="6"/></g>
<g transform="translate(352,176) scale(3.6666666666667)"><rect width="6" height="6"/></g>
<g transform="translate(396,176) scale(3.6666666666667)"><rect width="6" height="6"/></g>
<g transform="translate(440,176) scale(3.6666666666667)"><rect width="6" height="6"/></g>
<g transform="translate(484,176) scale(3.6666666666667)"><rect width="6" height="6"/></g>
<g transform="translate(528,176) scale(3.6666666666667)"><rect width="6" height="6"/></g>
<g transform="translate(572,176) scale(3.6666666666667)"><rect width="6" height="6"/></g>
<g transform="translate(616,176) scale(3.6666666666667)"><rect width="6" height="6"/></g>
<g transform="translate(660,176) scale(3.6666666666667)"><rect width="6" height="6"/></g>
<g transform="translate(704,176) scale(3.6666666666667)"><rect width="6" height="6"/></g>
<g transform="translate(748,176) scale(3.6666666666667)"><rect width="6" height="6"/></g>
<g transform="translate(220,198) scale(3.6666666666667)"><rect width="6" height="6"/></g>
<g transform="translate(242,198) scale(3.6666666666667)"><rect width="6" height="6"/></g>
<g transform="translate(286,198) scale(3.6666666666667)"><rect width="6" height="6"/></g>
<g transform="translate(396,198) scale(3.6666666666667)"><rect width="6" height="6"/></g>
<g transform="translate(418,198) scale(3.6666666666667)"><rect width="6" height="6"/></g>
<g transform="translate(440,198) scale(3.6666666666667)"><rect width="6" height="6"/></g>
<g transform="translate(484,198) scale(3.6666666666667)"><rect width="6" height="6"/></g>
<g transform="translate(528,198) scale(3.6666666666667)"><rect width="6" height="6"/></g>
<g transform="translate(572,198) scale(3.6666666666667)"><rect width="6" height="6"/></g>
<g transform="translate(594,198) scale(3.6666666666667)"><rect width="6" height="6"/></g>
<g transform="translate(616,198) scale(3.6666666666667)"><rect width="6" height="6"/></g>
<g transform="translate(704,198) scale(3.6666666666667)"><rect width="6" height="6"/></g>
<g transform="translate(726,198) scale(3.6666666666667)"><rect width="6" height="6"/></g>
<g transform="translate(88,220) scale(3.6666666666667)"><rect width="6" height="6"/></g>
<g transform="translate(110,220) scale(3.6666666666667)"><rect width="6" height="6"/></g>
<g transform="translate(132,220) scale(3.6666666666667)"><rect width="6" height="6"/></g>
<g transform="translate(176,220) scale(3.6666666666667)"><rect width="6" height="6"/></g>
<g transform="translate(220,220) scale(3.6666666666667)"><rect width="6" height="6"/></g>
<g transform="translate(264,220) scale(3.6666666666667)"><rect width="6" height="6"/></g>
<g transform="translate(308,220) scale(3.6666666666667)"><rect width="6" height="6"/></g>
<g transform="translate(352,220) scale(3.6666666666667)"><rect width="6" height="6"/></g>
<g transform="translate(374,220) scale(3.6666666666667)"><rect width="6" height="6"/></g>
<g transform="translate(484,220) scale(3.6666666666667)"><rect width="6" height="6"/></g>
<g transform="translate(506,220) scale(3.6666666666667)"><rect width="6" height="6"/></g>
<g transform="translate(528,220) scale(3.6666666666667)"><rect width="6" height="6"/></g>
<g transform="translate(594,220) scale(3.6666666666667)"><rect width="6" height="6"/></g>
<g transform="translate(660,220) scale(3.6666666666667)"><rect width="6" height="6"/></g>
<g transform="translate(682,220) scale(3.6666666666667)"><rect width="6" height="6"/></g>
<g transform="translate(726,220) scale(3.6666666666667)"><rect width="6" height="6"/></g>
<g transform="translate(748,220) scale(3.6666666666667)"><rect width="6" height="6"/></g>
<g transform="translate(770,220) scale(3.6666666666667)"><rect width="6" height="6"/></g>
<g transform="translate(792,220) scale(3.6666666666667)"><rect width="6" height="6"/></g>
<g transform="translate(814,220) scale(3.6666666666667)"><rect width="6" height="6"/></g>
<g transform="translate(880,220) scale(3.6666666666667)"><rect width="6" height="6"/></g>
<g transform="translate(902,220) scale(3.6666666666667)"><rect width="6" height="6"/></g>
<g transform="translate(924,220) scale(3.6666666666667)"><rect width="6" height="6"/></g>
<g transform="translate(44,242) scale(3.6666666666667)"><rect width="6" height="6"/></g>
<g transform="translate(66,242) scale(3.6666666666667)"><rect width="6" height="6"/></g>
<g transform="translate(88,242) scale(3.6666666666667)"><rect width="6" height="6"/></g>
<g transform="translate(110,242) scale(3.6666666666667)"><rect width="6" height="6"/></g>
<g transform="translate(132,242) scale(3.6666666666667)"><rect width="6" height="6"/></g>
<g transform="translate(154,242) scale(3.6666666666667)"><rect width="6" height="6"/></g>
<g transform="translate(330,242) scale(3.6666666666667)"><rect width="6" height="6"/></g>
<g transform="translate(352,242) scale(3.6666666666667)"><rect width="6" height="6"/></g>
<g transform="translate(374,242) scale(3.6666666666667)"><rect width="6" height="6"/></g>
<g transform="translate(418,242) scale(3.6666666666667)"><rect width="6" height="6"/></g>
<g transform="translate(440,242) scale(3.6666666666667)"><rect width="6" height="6"/></g>
<g transform="translate(484,242) scale(3.6666666666667)"><rect width="6" height="6"/></g>
<g transform="translate(506,242) scale(3.6666666666667)"><rect width="6" height="6"/></g>
<g transform="translate(528,242) scale(3.6666666666667)"><rect width="6" height="6"/></g>
<g transform="translate(594,242) scale(3.6666666666667)"><rect width="6" height="6"/></g>
<g transform="translate(616,242) scale(3.6666666666667)"><rect width="6" height="6"/></g>
<g transform="translate(682,242) scale(3.6666666666667)"><rect width="6" height="6"/></g>
<g transform="translate(704,242) scale(3.6666666666667)"><rect width="6" height="6"/></g>
<g transform="translate(726,242) scale(3.6666666666667)"><rect width="6" height="6"/></g>
<g transform="translate(748,242) scale(3.6666666666667)"><rect width="6" height="6"/></g>
<g transform="translate(770,242) scale(3.6666666666667)"><rect width="6" height="6"/></g>
<g transform="translate(792,242) scale(3.6666666666667)"><rect width="6" height="6"/></g>
<g transform="translate(814,242) scale(3.6666666666667)"><rect width="6" height="6"/></g>
<g transform="translate(836,242) scale(3.6666666666667)"><rect width="6" height="6"/></g>
<g transform="translate(880,242) scale(3.6666666666667)"><rect width="6" height="6"/></g>
<g transform="translate(902,242) scale(3.6666666666667)"><rect width="6" height="6"/></g>
<g transform="translate(44,264) scale(3.6666666666667)"><rect width="6" height="6"/></g>
<g transform="translate(66,264) scale(3.6666666666667)"><rect width="6" height="6"/></g>
<g transform="translate(176,264) scale(3.6666666666667)"><rect width="6" height="6"/></g>
<g transform="translate(198,264) scale(3.6666666666667)"><rect width="6" height="6"/></g>
<g transform="translate(220,264) scale(3.6666666666667)"><rect width="6" height="6"/></g>
<g transform="translate(242,264) scale(3.6666666666667)"><rect width="6" height="6"/></g>
<g transform="translate(308,264) scale(3.6666666666667)"><rect width="6" height="6"/></g>
<g transform="translate(374,264) scale(3.6666666666667)"><rect width="6" height="6"/></g>
<g transform="translate(440,264) scale(3.6666666666667)"><rect width="6" height="6"/></g>
<g transform="translate(462,264) scale(3.6666666666667)"><rect width="6" height="6"/></g>
<g transform="translate(506,264) scale(3.6666666666667)"><rect width="6" height="6"/></g>
<g transform="translate(550,264) scale(3.6666666666667)"><rect width="6" height="6"/></g>
<g transform="translate(594,264) scale(3.6666666666667)"><rect width="6" height="6"/></g>
<g transform="translate(638,264) scale(3.6666666666667)"><rect width="6" height="6"/></g>
<g transform="translate(660,264) scale(3.6666666666667)"><rect width="6" height="6"/></g>
<g transform="translate(748,264) scale(3.6666666666667)"><rect width="6" height="6"/></g>
<g transform="translate(770,264) scale(3.6666666666667)"><rect width="6" height="6"/></g>
<g transform="translate(902,264) scale(3.6666666666667)"><rect width="6" height="6"/></g>
<g transform="translate(66,286) scale(3.6666666666667)"><rect width="6" height="6"/></g>
<g transform="translate(88,286) scale(3.6666666666667)"><rect width="6" height="6"/></g>
<g transform="translate(132,286) scale(3.6666666666667)"><rect width="6" height="6"/></g>
<g transform="translate(154,286) scale(3.6666666666667)"><rect width="6" height="6"/></g>
<g transform="translate(220,286) scale(3.6666666666667)"><rect width="6" height="6"/></g>
<g transform="translate(242,286) scale(3.6666666666667)"><rect width="6" height="6"/></g>
<g transform="translate(264,286) scale(3.6666666666667)"><rect width="6" height="6"/></g>
<g transform="translate(352,286) scale(3.6666666666667)"><rect width="6" height="6"/></g>
<g transform="translate(396,286) scale(3.6666666666667)"><rect width="6" height="6"/></g>
<g transform="translate(418,286) scale(3.6666666666667)"><rect width="6" height="6"/></g>
<g transform="translate(440,286) scale(3.6666666666667)"><rect width="6" height="6"/></g>
<g transform="translate(462,286) scale(3.6666666666667)"><rect width="6" height="6"/></g>
<g transform="translate(484,286) scale(3.6666666666667)"><rect width="6" height="6"/></g>
<g transform="translate(506,286) scale(3.6666666666667)"><rect width="6" height="6"/></g>
<g transform="translate(528,286) scale(3.6666666666667)"><rect width="6" height="6"/></g>
<g transform="translate(550,286) scale(3.6666666666667)"><rect width="6" height="6"/></g>
<g transform="translate(572,286) scale(3.6666666666667)"><rect width="6" height="6"/></g>
<g transform="translate(660,286) scale(3.6666666666667)"><rect width="6" height="6"/></g>
<g transform="translate(726,286) scale(3.6666666666667)"><rect width="6" height="6"/></g>
<g transform="translate(748,286) scale(3.6666666666667)"><rect width="6" height="6"/></g>
<g transform="translate(814,286) scale(3.6666666666667)"><rect width="6" height="6"/></g>
<g transform="translate(836,286) scale(3.6666666666667)"><rect width="6" height="6"/></g>
<g transform="translate(858,286) scale(3.6666666666667)"><rect width="6" height="6"/></g>
<g transform="translate(902,286) scale(3.6666666666667)"><rect width="6" height="6"/></g>
<g transform="translate(924,286) scale(3.6666666666667)"><rect width="6" height="6"/></g>
<g transform="translate(154,308) scale(3.6666666666667)"><rect width="6" height="6"/></g>
<g transform="translate(176,308) scale(3.6666666666667)"><rect width="6" height="6"/></g>
<g transform="translate(198,308) scale(3.6666666666667)"><rect width="6" height="6"/></g>
<g transform="translate(220,308) scale(3.6666666666667)"><rect width="6" height="6"/></g>
<g transform="translate(286,308) scale(3.6666666666667)"><rect width="6" height="6"/></g>
<g transform="translate(308,308) scale(3.6666666666667)"><rect width="6" height="6"/></g>
<g transform="translate(330,308) scale(3.6666666666667)"><rect width="6" height="6"/></g>
<g transform="translate(374,308) scale(3.6666666666667)"><rect width="6" height="6"/></g>
<g transform="translate(462,308) scale(3.6666666666667)"><rect width="6" height="6"/></g>
<g transform="translate(572,308) scale(3.6666666666667)"><rect width="6" height="6"/></g>
<g transform="translate(638,308) scale(3.6666666666667)"><rect width="6" height="6"/></g>
<g transform="translate(660,308) scale(3.6666666666667)"><rect width="6" height="6"/></g>
<g transform="translate(726,308) scale(3.6666666666667)"><rect width="6" height="6"/></g>
<g transform="translate(770,308) scale(3.6666666666667)"><rect width="6" height="6"/></g>
<g transform="translate(814,308) scale(3.6666666666667)"><rect width="6" height="6"/></g>
<g transform="translate(836,308) scale(3.6666666666667)"><rect width="6" height="6"/></g>
<g transform="translate(858,308) scale(3.6666666666667)"><rect width="6" height="6"/></g>
<g transform="translate(880,308) scale(3.6666666666667)"><rect width="6" height="6"/></g>
<g transform="translate(924,308) scale(3.6666666666667)"><rect width="6" height="6"/></g>
<g transform="translate(44,330) scale(3.6666666666667)"><rect width="6" height="6"/></g>
<g transform="translate(66,330) scale(3.6666666666667)"><rect width="6" height="6"/></g>
<g transform="translate(110,330) scale(3.6666666666667)"><rect width="6" height="6"/></g>
<g transform="translate(132,330) scale(3.6666666666667)"><rect width="6" height="6"/></g>
<g transform="translate(154,330) scale(3.6666666666667)"><rect width="6" height="6"/></g>
<g transform="translate(198,330) scale(3.6666666666667)"><rect width="6" height="6"/></g>
<g transform="translate(286,330) scale(3.6666666666667)"><rect width="6" height="6"/></g>
<g transform="translate(352,330) scale(3.6666666666667)"><rect width="6" height="6"/></g>
<g transform="translate(418,330) scale(3.6666666666667)"><rect width="6" height="6"/></g>
<g transform="translate(440,330) scale(3.6666666666667)"><rect width="6" height="6"/></g>
<g transform="translate(462,330) scale(3.6666666666667)"><rect width="6" height="6"/></g>
<g transform="translate(484,330) scale(3.6666666666667)"><rect width="6" height="6"/></g>
<g transform="translate(506,330) scale(3.6666666666667)"><rect width="6" height="6"/></g>
<g transform="translate(528,330) scale(3.6666666666667)"><rect width="6" height="6"/></g>
<g transform="translate(550,330) scale(3.6666666666667)"><rect width="6" height="6"/></g>
<g transform="translate(594,330) scale(3.6666666666667)"><rect width="6" height="6"/></g>
<g transform="translate(638,330) scale(3.6666666666667)"><rect width="6" height="6"/></g>
<g transform="translate(748,330) scale(3.6666666666667)"><rect width="6" height="6"/></g>
<g transform="translate(836,330) scale(3.6666666666667)"><rect width="6" height="6"/></g>
<g transform="translate(66,352) scale(3.6666666666667)"><rect width="6" height="6"/></g>
<g transform="translate(88,352) scale(3.6666666666667)"><rect width="6" height="6"/></g>
<g transform="translate(176,352) scale(3.6666666666667)"><rect width="6" height="6"/></g>
<g transform="translate(242,352) scale(3.6666666666667)"><rect width="6" height="6"/></g>
<g transform="translate(286,352) scale(3.6666666666667)"><rect width="6" height="6"/></g>
<g transform="translate(418,352) scale(3.6666666666667)"><rect width="6" height="6"/></g>
<g transform="translate(462,352) scale(3.6666666666667)"><rect width="6" height="6"/></g>
<g transform="translate(484,352) scale(3.6666666666667)"><rect width="6" height="6"/></g>
<g transform="translate(550,352) scale(3.6666666666667)"><rect width="6" height="6"/></g>
<g transform="translate(638,352) scale(3.6666666666667)"><rect width="6" height="6"/></g>
<g transform="translate(660,352) scale(3.6666666666667)"><rect width="6" height="6"/></g>
<g transform="translate(704,352) scale(3.6666666666667)"><rect width="6" height="6"/></g>
<g transform="translate(726,352) scale(3.6666666666667)"><rect width="6" height="6"/></g>
<g transform="translate(770,352) scale(3.6666666666667)"><rect width="6" height="6"/></g>
<g transform="translate(880,352) scale(3.6666666666667)"><rect width="6" height="6"/></g>
<g transform="translate(924,352) scale(3.6666666666667)"><rect width="6" height="6"/></g>
<g transform="translate(44,374) scale(3.6666666666667)"><rect width="6" height="6"/></g>
<g transform="translate(110,374) scale(3.6666666666667)"><rect width="6" height="6"/></g>
<g transform="translate(154,374) scale(3.6666666666667)"><rect width="6" height="6"/></g>
<g transform="translate(198,374) scale(3.6666666666667)"><rect width="6" height="6"/></g>
<g transform="translate(374,374) scale(3.6666666666667)"><rect width="6" height="6"/></g>
<g transform="translate(418,374) scale(3.6666666666667)"><rect width="6" height="6"/></g>
<g transform="translate(528,374) scale(3.6666666666667)"><rect width="6" height="6"/></g>
<g transform="translate(638,374) scale(3.6666666666667)"><rect width="6" height="6"/></g>
<g transform="translate(726,374) scale(3.6666666666667)"><rect width="6" height="6"/></g>
<g transform="translate(748,374) scale(3.6666666666667)"><rect width="6" height="6"/></g>
<g transform="translate(792,374) scale(3.6666666666667)"><rect width="6" height="6"/></g>
<g transform="translate(924,374) scale(3.6666666666667)"><rect width="6" height="6"/></g>
<g transform="translate(44,396) scale(3.6666666666667)"><rect width="6" height="6"/></g>
<g transform="translate(176,396) scale(3.6666666666667)"><rect width="6" height="6"/></g>
<g transform="translate(198,396) scale(3.6666666666667)"><rect width="6" height="6"/></g>
<g transform="translate(220,396) scale(3.6666666666667)"><rect width="6" height="6"/></g>
<g transform="translate(264,396) scale(3.6666666666667)"><rect width="6" height="6"/></g>
<g transform="translate(308,396) scale(3.6666666666667)"><rect width="6" height="6"/></g>
<g transform="translate(330,396) scale(3.6666666666667)"><rect width="6" height="6"/></g>
<g transform="translate(352,396) scale(3.6666666666667)"><rect width="6" height="6"/></g>
<g transform="translate(440,396) scale(3.6666666666667)"><rect width="6" height="6"/></g>
<g transform="translate(506,396) scale(3.6666666666667)"><rect width="6" height="6"/></g>
<g transform="translate(528,396) scale(3.6666666666667)"><rect width="6" height="6"/></g>
<g transform="translate(572,396) scale(3.6666666666667)"><rect width="6" height="6"/></g>
<g transform="translate(638,396) scale(3.6666666666667)"><rect width="6" height="6"/></g>
<g transform="translate(726,396) scale(3.6666666666667)"><rect width="6" height="6"/></g>
<g transform="translate(770,396) scale(3.6666666666667)"><rect width="6" height="6"/></g>
<g transform="translate(814,396) scale(3.6666666666667)"><rect width="6" height="6"/></g>
<g transform="translate(858,396) scale(3.6666666666667)"><rect width="6" height="6"/></g>
<g transform="translate(902,396) scale(3.6666666666667)"><rect width="6" height="6"/></g>
<g transform="translate(924,396) scale(3.6666666666667)"><rect width="6" height="6"/></g>
<g transform="translate(44,418) scale(3.6666666666667)"><rect width="6" height="6"/></g>
<g transform="translate(88,418) scale(3.6666666666667)"><rect width="6" height="6"/></g>
<g transform="translate(110,418) scale(3.6666666666667)"><rect width="6" height="6"/></g>
<g transform="translate(132,418) scale(3.6666666666667)"><rect width="6" height="6"/></g>
<g transform="translate(154,418) scale(3.6666666666667)"><rect width="6" height="6"/></g>
<g transform="translate(242,418) scale(3.6666666666667)"><rect width="6" height="6"/></g>
<g transform="translate(264,418) scale(3.6666666666667)"><rect width="6" height="6"/></g>
<g transform="translate(330,418) scale(3.6666666666667)"><rect width="6" height="6"/></g>
<g transform="translate(396,418) scale(3.6666666666667)"><rect width="6" height="6"/></g>
<g transform="translate(418,418) scale(3.6666666666667)"><rect width="6" height="6"/></g>
<g transform="translate(440,418) scale(3.6666666666667)"><rect width="6" height="6"/></g>
<g transform="translate(462,418) scale(3.6666666666667)"><rect width="6" height="6"/></g>
<g transform="translate(528,418) scale(3.6666666666667)"><rect width="6" height="6"/></g>
<g transform="translate(572,418) scale(3.6666666666667)"><rect width="6" height="6"/></g>
<g transform="translate(638,418) scale(3.6666666666667)"><rect width="6" height="6"/></g>
<g transform="translate(682,418) scale(3.6666666666667)"><rect width="6" height="6"/></g>
<g transform="translate(704,418) scale(3.6666666666667)"><rect width="6" height="6"/></g>
<g transform="translate(748,418) scale(3.6666666666667)"><rect width="6" height="6"/></g>
<g transform="translate(792,418) scale(3.6666666666667)"><rect width="6" height="6"/></g>
<g transform="translate(814,418) scale(3.6666666666667)"><rect width="6" height="6"/></g>
<g transform="translate(836,418) scale(3.6666666666667)"><rect width="6" height="6"/></g>
<g transform="translate(880,418) scale(3.6666666666667)"><rect width="6" height="6"/></g>
<g transform="translate(902,418) scale(3.6666666666667)"><rect width="6" height="6"/></g>
<g transform="translate(110,440) scale(3.6666666666667)"><rect width="6" height="6"/></g>
<g transform="translate(176,440) scale(3.6666666666667)"><rect width="6" height="6"/></g>
<g transform="translate(198,440) scale(3.6666666666667)"><rect width="6" height="6"/></g>
<g transform="translate(220,440) scale(3.6666666666667)"><rect width="6" height="6"/></g>
<g transform="translate(242,440) scale(3.6666666666667)"><rect width="6" height="6"/></g>
<g transform="translate(264,440) scale(3.6666666666667)"><rect width="6" height="6"/></g>
<g transform="translate(352,440) scale(3.6666666666667)"><rect width="6" height="6"/></g>
<g transform="translate(374,440) scale(3.6666666666667)"><rect width="6" height="6"/></g>
<g transform="translate(462,440) scale(3.6666666666667)"><rect width="6" height="6"/></g>
<g transform="translate(484,440) scale(3.6666666666667)"><rect width="6" height="6"/></g>
<g transform="translate(506,440) scale(3.6666666666667)"><rect width="6" height="6"/></g>
<g transform="translate(594,440) scale(3.6666666666667)"><rect width="6" height="6"/></g>
<g transform="translate(616,440) scale(3.6666666666667)"><rect width="6" height="6"/></g>
<g transform="translate(682,440) scale(3.6666666666667)"><rect width="6" height="6"/></g>
<g transform="translate(726,440) scale(3.6666666666667)"><rect width="6" height="6"/></g>
<g transform="translate(748,440) scale(3.6666666666667)"><rect width="6" height="6"/></g>
<g transform="translate(770,440) scale(3.6666666666667)"><rect width="6" height="6"/></g>
<g transform="translate(792,440) scale(3.6666666666667)"><rect width="6" height="6"/></g>
<g transform="translate(836,440) scale(3.6666666666667)"><rect width="6" height="6"/></g>
<g transform="translate(858,440) scale(3.6666666666667)"><rect width="6" height="6"/></g>
<g transform="translate(880,440) scale(3.6666666666667)"><rect width="6" height="6"/></g>
<g transform="translate(44,462) scale(3.6666666666667)"><rect width="6" height="6"/></g>
<g transform="translate(66,462) scale(3.6666666666667)"><rect width="6" height="6"/></g>
<g transform="translate(110,462) scale(3.6666666666667)"><rect width="6" height="6"/></g>
<g transform="translate(198,462) scale(3.6666666666667)"><rect width="6" height="6"/></g>
<g transform="translate(220,462) scale(3.6666666666667)"><rect width="6" height="6"/></g>
<g transform="translate(242,462) scale(3.6666666666667)"><rect width="6" height="6"/></g>
<g transform="translate(286,462) scale(3.6666666666667)"><rect width="6" height="6"/></g>
<g transform="translate(352,462) scale(3.6666666666667)"><rect width="6" height="6"/></g>
<g transform="translate(374,462) scale(3.6666666666667)"><rect width="6" height="6"/></g>
<g transform="translate(396,462) scale(3.6666666666667)"><rect width="6" height="6"/></g>
<g transform="translate(484,462) scale(3.6666666666667)"><rect width="6" height="6"/></g>
<g transform="translate(506,462) scale(3.6666666666667)"><rect width="6" height="6"/></g>
<g transform="translate(528,462) scale(3.6666666666667)"><rect width="6" height="6"/></g>
<g transform="translate(550,462) scale(3.6666666666667)"><rect width="6" height="6"/></g>
<g transform="translate(572,462) scale(3.6666666666667)"><rect width="6" height="6"/></g>
<g transform="translate(638,462) scale(3.6666666666667)"><rect width="6" height="6"/></g>
<g transform="translate(660,462) scale(3.6666666666667)"><rect width="6" height="6"/></g>
<g transform="translate(682,462) scale(3.6666666666667)"><rect width="6" height="6"/></g>
<g transform="translate(704,462) scale(3.6666666666667)"><rect width="6" height="6"/></g>
<g transform="translate(748,462) scale(3.6666666666667)"><rect width="6" height="6"/></g>
<g transform="translate(836,462) scale(3.6666666666667)"><rect width="6" height="6"/></g>
<g transform="translate(858,462) scale(3.6666666666667)"><rect width="6" height="6"/></g>
<g transform="translate(902,462) scale(3.6666666666667)"><rect width="6" height="6"/></g>
<g transform="translate(110,484) scale(3.6666666666667)"><rect width="6" height="6"/></g>
<g transform="translate(154,484) scale(3.6666666666667)"><rect width="6" height="6"/></g>
<g transform="translate(176,484) scale(3.6666666666667)"><rect width="6" height="6"/></g>
<g transform="translate(198,484) scale(3.6666666666667)"><rect width="6" height="6"/></g>
<g transform="translate(220,484) scale(3.6666666666667)"><rect width="6" height="6"/></g>
<g transform="translate(330,484) scale(3.6666666666667)"><rect width="6" height="6"/></g>
<g transform="translate(352,484) scale(3.6666666666667)"><rect width="6" height="6"/></g>
<g transform="translate(374,484) scale(3.6666666666667)"><rect width="6" height="6"/></g>
<g transform="translate(418,484) scale(3.6666666666667)"><rect width="6" height="6"/></g>
<g transform="translate(440,484) scale(3.6666666666667)"><rect width="6" height="6"/></g>
<g transform="translate(484,484) scale(3.6666666666667)"><rect width="6" height="6"/></g>
<g transform="translate(506,484) scale(3.6666666666667)"><rect width="6" height="6"/></g>
<g transform="translate(572,484) scale(3.6666666666667)"><rect width="6" height="6"/></g>
<g transform="translate(638,484) scale(3.6666666666667)"><rect width="6" height="6"/></g>
<g transform="translate(748,484) scale(3.6666666666667)"><rect width="6" height="6"/></g>
<g transform="translate(836,484) scale(3.6666666666667)"><rect width="6" height="6"/></g>
<g transform="translate(902,484) scale(3.6666666666667)"><rect width="6" height="6"/></g>
<g transform="translate(66,506) scale(3.6666666666667)"><rect width="6" height="6"/></g>
<g transform="translate(88,506) scale(3.6666666666667)"><rect width="6" height="6"/></g>
<g transform="translate(110,506) scale(3.6666666666667)"><rect width="6" height="6"/></g>
<g transform="translate(198,506) scale(3.6666666666667)"><rect width="6" height="6"/></g>
<g transform="translate(220,506) scale(3.6666666666667)"><rect width="6" height="6"/></g>
<g transform="translate(242,506) scale(3.6666666666667)"><rect width="6" height="6"/></g>
<g transform="translate(264,506) scale(3.6666666666667)"><rect width="6" height="6"/></g>
<g transform="translate(286,506) scale(3.6666666666667)"><rect width="6" height="6"/></g>
<g transform="translate(308,506) scale(3.6666666666667)"><rect width="6" height="6"/></g>
<g transform="translate(330,506) scale(3.6666666666667)"><rect width="6" height="6"/></g>
<g transform="translate(396,506) scale(3.6666666666667)"><rect width="6" height="6"/></g>
<g transform="translate(440,506) scale(3.6666666666667)"><rect width="6" height="6"/></g>
<g transform="translate(528,506) scale(3.6666666666667)"><rect width="6" height="6"/></g>
<g transform="translate(550,506) scale(3.6666666666667)"><rect width="6" height="6"/></g>
<g transform="translate(594,506) scale(3.6666666666667)"><rect width="6" height="6"/></g>
<g transform="translate(616,506) scale(3.6666666666667)"><rect width="6" height="6"/></g>
<g transform="translate(638,506) scale(3.6666666666667)"><rect width="6" height="6"/></g>
<g transform="translate(704,506) scale(3.6666666666667)"><rect width="6" height="6"/></g>
<g transform="translate(748,506) scale(3.6666666666667)"><rect width="6" height="6"/></g>
<g transform="translate(814,506) scale(3.6666666666667)"><rect width="6" height="6"/></g>
<g transform="translate(858,506) scale(3.6666666666667)"><rect width="6" height="6"/></g>
<g transform="translate(880,506) scale(3.6666666666667)"><rect width="6" height="6"/></g>
<g transform="translate(902,506) scale(3.6666666666667)"><rect width="6" height="6"/></g>
<g transform="translate(924,506) scale(3.6666666666667)"><rect width="6" height="6"/></g>
<g transform="translate(154,528) scale(3.6666666666667)"><rect width="6" height="6"/></g>
<g transform="translate(176,528) scale(3.6666666666667)"><rect width="6" height="6"/></g>
<g transform="translate(198,528) scale(3.6666666666667)"><rect width="6" height="6"/></g>
<g transform="translate(264,528) scale(3.6666666666667)"><rect width="6" height="6"/></g>
<g transform="translate(330,528) scale(3.6666666666667)"><rect width="6" height="6"/></g>
<g transform="translate(374,528) scale(3.6666666666667)"><rect width="6" height="6"/></g>
<g transform="translate(396,528) scale(3.6666666666667)"><rect width="6" height="6"/></g>
<g transform="translate(484,528) scale(3.6666666666667)"><rect width="6" height="6"/></g>
<g transform="translate(506,528) scale(3.6666666666667)"><rect width="6" height="6"/></g>
<g transform="translate(528,528) scale(3.6666666666667)"><rect width="6" height="6"/></g>
<g transform="translate(550,528) scale(3.6666666666667)"><rect width="6" height="6"/></g>
<g transform="translate(572,528) scale(3.6666666666667)"><rect width="6" height="6"/></g>
<g transform="translate(594,528) scale(3.6666666666667)"><rect width="6" height="6"/></g>
<g transform="translate(616,528) scale(3.6666666666667)"><rect width="6" height="6"/></g>
<g transform="translate(638,528) scale(3.6666666666667)"><rect width="6" height="6"/></g>
<g transform="translate(682,528) scale(3.6666666666667)"><rect width="6" height="6"/></g>
<g transform="translate(704,528) scale(3.6666666666667)"><rect width="6" height="6"/></g>
<g transform="translate(726,528) scale(3.6666666666667)"><rect width="6" height="6"/></g>
<g transform="translate(748,528) scale(3.6666666666667)"><rect width="6" height="6"/></g>
<g transform="translate(770,528) scale(3.6666666666667)"><rect width="6" height="6"/></g>
<g transform="translate(858,528) scale(3.6666666666667)"><rect width="6" height="6"/></g>
<g transform="translate(66,550) scale(3.6666666666667)"><rect width="6" height="6"/></g>
<g transform="translate(110,550) scale(3.6666666666667)"><rect width="6" height="6"/></g>
<g transform="translate(132,550) scale(3.6666666666667)"><rect width="6" height="6"/></g>
<g transform="translate(286,550) scale(3.6666666666667)"><rect width="6" height="6"/></g>
<g transform="translate(352,550) scale(3.6666666666667)"><rect width="6" height="6"/></g>
<g transform="translate(374,550) scale(3.6666666666667)"><rect width="6" height="6"/></g>
<g transform="translate(396,550) scale(3.6666666666667)"><rect width="6" height="6"/></g>
<g transform="translate(506,550) scale(3.6666666666667)"><rect width="6" height="6"/></g>
<g transform="translate(528,550) scale(3.6666666666667)"><rect width="6" height="6"/></g>
<g transform="translate(572,550) scale(3.6666666666667)"><rect width="6" height="6"/></g>
<g transform="translate(594,550) scale(3.6666666666667)"><rect width="6" height="6"/></g>
<g transform="translate(638,550) scale(3.6666666666667)"><rect width="6" height="6"/></g>
<g transform="translate(660,550) scale(3.6666666666667)"><rect width="6" height="6"/></g>
<g transform="translate(726,550) scale(3.6666666666667)"><rect width="6" height="6"/></g>
<g transform="translate(792,550) scale(3.6666666666667)"><rect width="6" height="6"/></g>
<g transform="translate(814,550) scale(3.6666666666667)"><rect width="6" height="6"/></g>
<g transform="translate(858,550) scale(3.6666666666667)"><rect width="6" height="6"/></g>
<g transform="translate(924,550) scale(3.6666666666667)"><rect width="6" height="6"/></g>
<g transform="translate(44,572) scale(3.6666666666667)"><rect width="6" height="6"/></g>
<g transform="translate(66,572) scale(3.6666666666667)"><rect width="6" height="6"/></g>
<g transform="translate(132,572) scale(3.6666666666667)"><rect width="6" height="6"/></g>
<g transform="translate(176,572) scale(3.6666666666667)"><rect width="6" height="6"/></g>
<g transform="translate(198,572) scale(3.6666666666667)"><rect width="6" height="6"/></g>
<g transform="translate(286,572) scale(3.6666666666667)"><rect width="6" height="6"/></g>
<g transform="translate(418,572) scale(3.6666666666667)"><rect width="6" height="6"/></g>
<g transform="translate(440,572) scale(3.6666666666667)"><rect width="6" height="6"/></g>
<g transform="translate(484,572) scale(3.6666666666667)"><rect width="6" height="6"/></g>
<g transform="translate(572,572) scale(3.6666666666667)"><rect width="6" height="6"/></g>
<g transform="translate(594,572) scale(3.6666666666667)"><rect width="6" height="6"/></g>
<g transform="translate(616,572) scale(3.6666666666667)"><rect width="6" height="6"/></g>
<g transform="translate(660,572) scale(3.6666666666667)"><rect width="6" height="6"/></g>
<g transform="translate(682,572) scale(3.6666666666667)"><rect width="6" height="6"/></g>
<g transform="translate(726,572) scale(3.6666666666667)"><rect width="6" height="6"/></g>
<g transform="translate(792,572) scale(3.6666666666667)"><rect width="6" height="6"/></g>
<g transform="translate(880,572) scale(3.6666666666667)"><rect width="6" height="6"/></g>
<g transform="translate(902,572) scale(3.6666666666667)"><rect width="6" height="6"/></g>
<g transform="translate(924,572) scale(3.6666666666667)"><rect width="6" height="6"/></g>
<g transform="translate(44,594) scale(3.6666666666667)"><rect width="6" height="6"/></g>
<g transform="translate(110,594) scale(3.6666666666667)"><rect width="6" height="6"/></g>
<g transform="translate(242,594) scale(3.6666666666667)"><rect width="6" height="6"/></g>
<g transform="translate(264,594) scale(3.6666666666667)"><rect width="6" height="6"/></g>
<g transform="translate(308,594) scale(3.6666666666667)"><rect width="6" height="6"/></g>
<g transform="translate(330,594) scale(3.6666666666667)"><rect width="6" height="6"/></g>
<g transform="translate(352,594) scale(3.6666666666667)"><rect width="6" height="6"/></g>
<g transform="translate(418,594) scale(3.6666666666667)"><rect width="6" height="6"/></g>
<g transform="translate(440,594) scale(3.6666666666667)"><rect width="6" height="6"/></g>
<g transform="translate(462,594) scale(3.6666666666667)"><rect width="6" height="6"/></g>
<g transform="translate(528,594) scale(3.6666666666667)"><rect width="6" height="6"/></g>
<g transform="translate(682,594) scale(3.6666666666667)"><rect width="6" height="6"/></g>
<g transform="translate(704,594) scale(3.6666666666667)"><rect width="6" height="6"/></g>
<g transform="translate(726,594) scale(3.6666666666667)"><rect width="6" height="6"/></g>
<g transform="translate(792,594) scale(3.6666666666667)"><rect width="6" height="6"/></g>
<g transform="translate(814,594) scale(3.6666666666667)"><rect width="6" height="6"/></g>
<g transform="translate(858,594) scale(3.6666666666667)"><rect width="6" height="6"/></g>
<g transform="translate(902,594) scale(3.6666666666667)"><rect width="6" height="6"/></g>
<g transform="translate(924,594) scale(3.6666666666667)"><rect width="6" height="6"/></g>
<g transform="translate(154,616) scale(3.6666666666667)"><rect width="6" height="6"/></g>
<g transform="translate(176,616) scale(3.6666666666667)"><rect width="6" height="6"/></g>
<g transform="translate(242,616) scale(3.6666666666667)"><rect width="6" height="6"/></g>
<g transform="translate(286,616) scale(3.6666666666667)"><rect width="6" height="6"/></g>
<g transform="translate(330,616) scale(3.6666666666667)"><rect width="6" height="6"/></g>
<g transform="translate(352,616) scale(3.6666666666667)"><rect width="6" height="6"/></g>
<g transform="translate(396,616) scale(3.6666666666667)"><rect width="6" height="6"/></g>
<g transform="translate(462,616) scale(3.6666666666667)"><rect width="6" height="6"/></g>
<g transform="translate(484,616) scale(3.6666666666667)"><rect width="6" height="6"/></g>
<g transform="translate(506,616) scale(3.6666666666667)"><rect width="6" height="6"/></g>
<g transform="translate(550,616) scale(3.6666666666667)"><rect width="6" height="6"/></g>
<g transform="translate(572,616) scale(3.6666666666667)"><rect width="6" height="6"/></g>
<g transform="translate(594,616) scale(3.6666666666667)"><rect width="6" height="6"/></g>
<g transform="translate(616,616) scale(3.6666666666667)"><rect width="6" height="6"/></g>
<g transform="translate(638,616) scale(3.6666666666667)"><rect width="6" height="6"/></g>
<g transform="translate(704,616) scale(3.6666666666667)"><rect width="6" height="6"/></g>
<g transform="translate(748,616) scale(3.6666666666667)"><rect width="6" height="6"/></g>
<g transform="translate(792,616) scale(3.6666666666667)"><rect width="6" height="6"/></g>
<g transform="translate(814,616) scale(3.6666666666667)"><rect width="6" height="6"/></g>
<g transform="translate(902,616) scale(3.6666666666667)"><rect width="6" height="6"/></g>
<g transform="translate(66,638) scale(3.6666666666667)"><rect width="6" height="6"/></g>
<g transform="translate(110,638) scale(3.6666666666667)"><rect width="6" height="6"/></g>
<g transform="translate(132,638) scale(3.6666666666667)"><rect width="6" height="6"/></g>
<g transform="translate(198,638) scale(3.6666666666667)"><rect width="6" height="6"/></g>
<g transform="translate(220,638) scale(3.6666666666667)"><rect width="6" height="6"/></g>
<g transform="translate(242,638) scale(3.6666666666667)"><rect width="6" height="6"/></g>
<g transform="translate(286,638) scale(3.6666666666667)"><rect width="6" height="6"/></g>
<g transform="translate(330,638) scale(3.6666666666667)"><rect width="6" height="6"/></g>
<g transform="translate(352,638) scale(3.6666666666667)"><rect width="6" height="6"/></g>
<g transform="translate(374,638) scale(3.6666666666667)"><rect width="6" height="6"/></g>
<g transform="translate(440,638) scale(3.6666666666667)"><rect width="6" height="6"/></g>
<g transform="translate(462,638) scale(3.6666666666667)"><rect width="6" height="6"/></g>
<g transform="translate(484,638) scale(3.6666666666667)"><rect width="6" height="6"/></g>
<g transform="translate(572,638) scale(3.6666666666667)"><rect width="6" height="6"/></g>
<g transform="translate(594,638) scale(3.6666666666667)"><rect width="6" height="6"/></g>
<g transform="translate(638,638) scale(3.6666666666667)"><rect width="6" height="6"/></g>
<g transform="translate(704,638) scale(3.6666666666667)"><rect width="6" height="6"/></g>
<g transform="translate(726,638) scale(3.6666666666667)"><rect width="6" height="6"/></g>
<g transform="translate(748,638) scale(3.6666666666667)"><rect width="6" height="6"/></g>
<g transform="translate(770,638) scale(3.6666666666667)"><rect width="6" height="6"/></g>
<g transform="translate(792,638) scale(3.6666666666667)"><rect width="6" height="6"/></g>
<g transform="translate(858,638) scale(3.6666666666667)"><rect width="6" height="6"/></g>
<g transform="translate(902,638) scale(3.6666666666667)"><rect width="6" height="6"/></g>
<g transform="translate(66,660) scale(3.6666666666667)"><rect width="6" height="6"/></g>
<g transform="translate(132,660) scale(3.6666666666667)"><rect width="6" height="6"/></g>
<g transform="translate(176,660) scale(3.6666666666667)"><rect width="6" height="6"/></g>
<g transform="translate(220,660) scale(3.6666666666667)"><rect width="6" height="6"/></g>
<g transform="translate(242,660) scale(3.6666666666667)"><rect width="6" height="6"/></g>
<g transform="translate(264,660) scale(3.6666666666667)"><rect width="6" height="6"/></g>
<g transform="translate(352,660) scale(3.6666666666667)"><rect width="6" height="6"/></g>
<g transform="translate(374,660) scale(3.6666666666667)"><rect width="6" height="6"/></g>
<g transform="translate(396,660) scale(3.6666666666667)"><rect width="6" height="6"/></g>
<g transform="translate(418,660) scale(3.6666666666667)"><rect width="6" height="6"/></g>
<g transform="translate(440,660) scale(3.6666666666667)"><rect width="6" height="6"/></g>
<g transform="translate(506,660) scale(3.6666666666667)"><rect width="6" height="6"/></g>
<g transform="translate(528,660) scale(3.6666666666667)"><rect width="6" height="6"/></g>
<g transform="translate(572,660) scale(3.6666666666667)"><rect width="6" height="6"/></g>
<g transform="translate(594,660) scale(3.6666666666667)"><rect width="6" height="6"/></g>
<g transform="translate(616,660) scale(3.6666666666667)"><rect width="6" height="6"/></g>
<g transform="translate(638,660) scale(3.6666666666667)"><rect width="6" height="6"/></g>
<g transform="translate(726,660) scale(3.6666666666667)"><rect width="6" height="6"/></g>
<g transform="translate(748,660) scale(3.6666666666667)"><rect width="6" height="6"/></g>
<g transform="translate(792,660) scale(3.6666666666667)"><rect width="6" height="6"/></g>
<g transform="translate(814,660) scale(3.6666666666667)"><rect width="6" height="6"/></g>
<g transform="translate(836,660) scale(3.6666666666667)"><rect width="6" height="6"/></g>
<g transform="translate(858,660) scale(3.6666666666667)"><rect width="6" height="6"/></g>
<g transform="translate(880,660) scale(3.6666666666667)"><rect width="6" height="6"/></g>
<g transform="translate(924,660) scale(3.6666666666667)"><rect width="6" height="6"/></g>
<g transform="translate(44,682) scale(3.6666666666667)"><rect width="6" height="6"/></g>
<g transform="translate(110,682) scale(3.6666666666667)"><rect width="6" height="6"/></g>
<g transform="translate(154,682) scale(3.6666666666667)"><rect width="6" height="6"/></g>
<g transform="translate(242,682) scale(3.6666666666667)"><rect width="6" height="6"/></g>
<g transform="translate(286,682) scale(3.6666666666667)"><rect width="6" height="6"/></g>
<g transform="translate(330,682) scale(3.6666666666667)"><rect width="6" height="6"/></g>
<g transform="translate(440,682) scale(3.6666666666667)"><rect width="6" height="6"/></g>
<g transform="translate(462,682) scale(3.6666666666667)"><rect width="6" height="6"/></g>
<g transform="translate(506,682) scale(3.6666666666667)"><rect width="6" height="6"/></g>
<g transform="translate(528,682) scale(3.6666666666667)"><rect width="6" height="6"/></g>
<g transform="translate(572,682) scale(3.6666666666667)"><rect width="6" height="6"/></g>
<g transform="translate(594,682) scale(3.6666666666667)"><rect width="6" height="6"/></g>
<g transform="translate(616,682) scale(3.6666666666667)"><rect width="6" height="6"/></g>
<g transform="translate(638,682) scale(3.6666666666667)"><rect width="6" height="6"/></g>
<g transform="translate(660,682) scale(3.6666666666667)"><rect width="6" height="6"/></g>
<g transform="translate(770,682) scale(3.6666666666667)"><rect width="6" height="6"/></g>
<g transform="translate(814,682) scale(3.6666666666667)"><rect width="6" height="6"/></g>
<g transform="translate(836,682) scale(3.6666666666667)"><rect width="6" height="6"/></g>
<g transform="translate(44,704) scale(3.6666666666667)"><rect width="6" height="6"/></g>
<g transform="translate(88,704) scale(3.6666666666667)"><rect width="6" height="6"/></g>
<g transform="translate(110,704) scale(3.6666666666667)"><rect width="6" height="6"/></g>
<g transform="translate(176,704) scale(3.6666666666667)"><rect width="6" height="6"/></g>
<g transform="translate(198,704) scale(3.6666666666667)"><rect width="6" height="6"/></g>
<g transform="translate(242,704) scale(3.6666666666667)"><rect width="6" height="6"/></g>
<g transform="translate(286,704) scale(3.6666666666667)"><rect width="6" height="6"/></g>
<g transform="translate(352,704) scale(3.6666666666667)"><rect width="6" height="6"/></g>
<g transform="translate(418,704) scale(3.6666666666667)"><rect width="6" height="6"/></g>
<g transform="translate(528,704) scale(3.6666666666667)"><rect width="6" height="6"/></g>
<g transform="translate(594,704) scale(3.6666666666667)"><rect width="6" height="6"/></g>
<g transform="translate(616,704) scale(3.6666666666667)"><rect width="6" height="6"/></g>
<g transform="translate(704,704) scale(3.6666666666667)"><rect width="6" height="6"/></g>
<g transform="translate(748,704) scale(3.6666666666667)"><rect width="6" height="6"/></g>
<g transform="translate(770,704) scale(3.6666666666667)"><rect width="6" height="6"/></g>
<g transform="translate(792,704) scale(3.6666666666667)"><rect width="6" height="6"/></g>
<g transform="translate(814,704) scale(3.6666666666667)"><rect width="6" height="6"/></g>
<g transform="translate(858,704) scale(3.6666666666667)"><rect width="6" height="6"/></g>
<g transform="translate(924,704) scale(3.6666666666667)"><rect width="6" height="6"/></g>
<g transform="translate(44,726) scale(3.6666666666667)"><rect width="6" height="6"/></g>
<g transform="translate(132,726) scale(3.6666666666667)"><rect width="6" height="6"/></g>
<g transform="translate(154,726) scale(3.6666666666667)"><rect width="6" height="6"/></g>
<g transform="translate(198,726) scale(3.6666666666667)"><rect width="6" height="6"/></g>
<g transform="translate(220,726) scale(3.6666666666667)"><rect width="6" height="6"/></g>
<g transform="translate(286,726) scale(3.6666666666667)"><rect width="6" height="6"/></g>
<g transform="translate(308,726) scale(3.6666666666667)"><rect width="6" height="6"/></g>
<g transform="translate(330,726) scale(3.6666666666667)"><rect width="6" height="6"/></g>
<g transform="translate(418,726) scale(3.6666666666667)"><rect width="6" height="6"/></g>
<g transform="translate(462,726) scale(3.6666666666667)"><rect width="6" height="6"/></g>
<g transform="translate(484,726) scale(3.6666666666667)"><rect width="6" height="6"/></g>
<g transform="translate(528,726) scale(3.6666666666667)"><rect width="6" height="6"/></g>
<g transform="translate(572,726) scale(3.6666666666667)"><rect width="6" height="6"/></g>
<g transform="translate(594,726) scale(3.6666666666667)"><rect width="6" height="6"/></g>
<g transform="translate(660,726) scale(3.6666666666667)"><rect width="6" height="6"/></g>
<g transform="translate(682,726) scale(3.6666666666667)"><rect width="6" height="6"/></g>
<g transform="translate(770,726) scale(3.6666666666667)"><rect width="6" height="6"/></g>
<g transform="translate(792,726) scale(3.6666666666667)"><rect width="6" height="6"/></g>
<g transform="translate(836,726) scale(3.6666666666667)"><rect width="6" height="6"/></g>
<g transform="translate(902,726) scale(3.6666666666667)"><rect width="6" height="6"/></g>
<g transform="translate(44,748) scale(3.6666666666667)"><rect width="6" height="6"/></g>
<g transform="translate(88,748) scale(3.6666666666667)"><rect width="6" height="6"/></g>
<g transform="translate(176,748) scale(3.6666666666667)"><rect width="6" height="6"/></g>
<g transform="translate(242,748) scale(3.6666666666667)"><rect width="6" height="6"/></g>
<g transform="translate(286,748) scale(3.6666666666667)"><rect width="6" height="6"/></g>
<g transform="translate(308,748) scale(3.6666666666667)"><rect width="6" height="6"/></g>
<g transform="translate(374,748) scale(3.6666666666667)"><rect width="6" height="6"/></g>
<g transform="translate(418,748) scale(3.6666666666667)"><rect width="6" height="6"/></g>
<g transform="translate(440,748) scale(3.6666666666667)"><rect width="6" height="6"/></g>
<g transform="translate(484,748) scale(3.6666666666667)"><rect width="6" height="6"/></g>
<g transform="translate(528,748) scale(3.6666666666667)"><rect width="6" height="6"/></g>
<g transform="translate(572,748) scale(3.6666666666667)"><rect width="6" height="6"/></g>
<g transform="translate(594,748) scale(3.6666666666667)"><rect width="6" height="6"/></g>
<g transform="translate(660,748) scale(3.6666666666667)"><rect width="6" height="6"/></g>
<g transform="translate(748,748) scale(3.6666666666667)"><rect width="6" height="6"/></g>
<g transform="translate(770,748) scale(3.6666666666667)"><rect width="6" height="6"/></g>
<g transform="translate(792,748) scale(3.6666666666667)"><rect width="6" height="6"/></g>
<g transform="translate(814,748) scale(3.6666666666667)"><rect width="6" height="6"/></g>
<g transform="translate(836,748) scale(3.6666666666667)"><rect width="6" height="6"/></g>
<g transform="translate(902,748) scale(3.6666666666667)"><rect width="6" height="6"/></g>
<g transform="translate(924,748) scale(3.6666666666667)"><rect width="6" height="6"/></g>
<g transform="translate(220,770) scale(3.6666666666667)"><rect width="6" height="6"/></g>
<g transform="translate(264,770) scale(3.6666666666667)"><rect width="6" height="6"/></g>
<g transform="translate(286,770) scale(3.6666666666667)"><rect width="6" height="6"/></g>
<g transform="translate(374,770) scale(3.6666666666667)"><rect width="6" height="6"/></g>
<g transform="translate(396,770) scale(3.6666666666667)"><rect width="6" height="6"/></g>
<g transform="translate(418,770) scale(3.6666666666667)"><rect width="6" height="6"/></g>
<g transform="translate(462,770) scale(3.6666666666667)"><rect width="6" height="6"/></g>
<g transform="translate(506,770) scale(3.6666666666667)"><rect width="6" height="6"/></g>
<g transform="translate(550,770) scale(3.6666666666667)"><rect width="6" height="6"/></g>
<g transform="translate(572,770) scale(3.6666666666667)"><rect width="6" height="6"/></g>
<g transform="translate(594,770) scale(3.6666666666667)"><rect width="6" height="6"/></g>
<g transform="translate(616,770) scale(3.6666666666667)"><rect width="6" height="6"/></g>
<g transform="translate(638,770) scale(3.6666666666667)"><rect width="6" height="6"/></g>
<g transform="translate(660,770) scale(3.6666666666667)"><rect width="6" height="6"/></g>
<g transform="translate(748,770) scale(3.6666666666667)"><rect width="6" height="6"/></g>
<g transform="translate(836,770) scale(3.6666666666667)"><rect width="6" height="6"/></g>
<g transform="translate(880,770) scale(3.6666666666667)"><rect width="6" height="6"/></g>
<g transform="translate(902,770) scale(3.6666666666667)"><rect width="6" height="6"/></g>
<g transform="translate(330,792) scale(3.6666666666667)"><rect width="6" height="6"/></g>
<g transform="translate(396,792) scale(3.6666666666667)"><rect width="6" height="6"/></g>
<g transform="translate(418,792) scale(3.6666666666667)"><rect width="6" height="6"/></g>
<g transform="translate(506,792) scale(3.6666666666667)"><rect width="6" height="6"/></g>
<g transform="translate(528,792) scale(3.6666666666667)"><rect width="6" height="6"/></g>
<g transform="translate(616,792) scale(3.6666666666667)"><rect width="6" height="6"/></g>
<g transform="translate(638,792) scale(3.6666666666667)"><rect width="6" height="6"/></g>
<g transform="translate(704,792) scale(3.6666666666667)"><rect width="6" height="6"/></g>
<g transform="translate(726,792) scale(3.6666666666667)"><rect width="6" height="6"/></g>
<g transform="translate(748,792) scale(3.6666666666667)"><rect width="6" height="6"/></g>
<g transform="translate(792,792) scale(3.6666666666667)"><rect width="6" height="6"/></g>
<g transform="translate(836,792) scale(3.6666666666667)"><rect width="6" height="6"/></g>
<g transform="translate(902,792) scale(3.6666666666667)"><rect width="6" height="6"/></g>
<g transform="translate(286,814) scale(3.6666666666667)"><rect width="6" height="6"/></g>
<g transform="translate(330,814) scale(3.6666666666667)"><rect width="6" height="6"/></g>
<g transform="translate(352,814) scale(3.6666666666667)"><rect width="6" height="6"/></g>
<g transform="translate(396,814) scale(3.6666666666667)"><rect width="6" height="6"/></g>
<g transform="translate(484,814) scale(3.6666666666667)"><rect width="6" height="6"/></g>
<g transform="translate(528,814) scale(3.6666666666667)"><rect width="6" height="6"/></g>
<g transform="translate(572,814) scale(3.6666666666667)"><rect width="6" height="6"/></g>
<g transform="translate(594,814) scale(3.6666666666667)"><rect width="6" height="6"/></g>
<g transform="translate(638,814) scale(3.6666666666667)"><rect width="6" height="6"/></g>
<g transform="translate(748,814) scale(3.6666666666667)"><rect width="6" height="6"/></g>
<g transform="translate(836,814) scale(3.6666666666667)"><rect width="6" height="6"/></g>
<g transform="translate(924,814) scale(3.6666666666667)"><rect width="6" height="6"/></g>
<g transform="translate(220,836) scale(3.6666666666667)"><rect width="6" height="6"/></g>
<g transform="translate(242,836) scale(3.6666666666667)"><rect width="6" height="6"/></g>
<g transform="translate(264,836) scale(3.6666666666667)"><rect width="6" height="6"/></g>
<g transform="translate(286,836) scale(3.6666666666667)"><rect width="6" height="6"/></g>
<g transform="translate(308,836) scale(3.6666666666667)"><rect width="6" height="6"/></g>
<g transform="translate(330,836) scale(3.6666666666667)"><rect width="6" height="6"/></g>
<g transform="translate(374,836) scale(3.6666666666667)"><rect width="6" height="6"/></g>
<g transform="translate(396,836) scale(3.6666666666667)"><rect width="6" height="6"/></g>
<g transform="translate(440,836) scale(3.6666666666667)"><rect width="6" height="6"/></g>
<g transform="translate(462,836) scale(3.6666666666667)"><rect width="6" height="6"/></g>
<g transform="translate(506,836) scale(3.6666666666667)"><rect width="6" height="6"/></g>
<g transform="translate(572,836) scale(3.6666666666667)"><rect width="6" height="6"/></g>
<g transform="translate(638,836) scale(3.6666666666667)"><rect width="6" height="6"/></g>
<g transform="translate(660,836) scale(3.6666666666667)"><rect width="6" height="6"/></g>
<g transform="translate(704,836) scale(3.6666666666667)"><rect width="6" height="6"/></g>
<g transform="translate(726,836) scale(3.6666666666667)"><rect width="6" height="6"/></g>
<g transform="translate(748,836) scale(3.6666666666667)"><rect width="6" height="6"/></g>
<g transform="translate(770,836) scale(3.6666666666667)"><rect width="6" height="6"/></g>
<g transform="translate(792,836) scale(3.6666666666667)"><rect width="6" height="6"/></g>
<g transform="translate(814,836) scale(3.6666666666667)"><rect width="6" height="6"/></g>
<g transform="translate(836,836) scale(3.6666666666667)"><rect width="6" height="6"/></g>
<g transform="translate(858,836) scale(3.6666666666667)"><rect width="6" height="6"/></g>
<g transform="translate(220,858) scale(3.6666666666667)"><rect width="6" height="6"/></g>
<g transform="translate(286,858) scale(3.6666666666667)"><rect width="6" height="6"/></g>
<g transform="translate(308,858) scale(3.6666666666667)"><rect width="6" height="6"/></g>
<g transform="translate(330,858) scale(3.6666666666667)"><rect width="6" height="6"/></g>
<g transform="translate(352,858) scale(3.6666666666667)"><rect width="6" height="6"/></g>
<g transform="translate(418,858) scale(3.6666666666667)"><rect width="6" height="6"/></g>
<g transform="translate(462,858) scale(3.6666666666667)"><rect width="6" height="6"/></g>
<g transform="translate(484,858) scale(3.6666666666667)"><rect width="6" height="6"/></g>
<g transform="translate(506,858) scale(3.6666666666667)"><rect width="6" height="6"/></g>
<g transform="translate(550,858) scale(3.6666666666667)"><rect width="6" height="6"/></g>
<g transform="translate(572,858) scale(3.6666666666667)"><rect width="6" height="6"/></g>
<g transform="translate(594,858) scale(3.6666666666667)"><rect width="6" height="6"/></g>
<g transform="translate(616,858) scale(3.6666666666667)"><rect width="6" height="6"/></g>
<g transform="translate(638,858) scale(3.6666666666667)"><rect width="6" height="6"/></g>
<g transform="translate(726,858) scale(3.6666666666667)"><rect width="6" height="6"/></g>
<g transform="translate(748,858) scale(3.6666666666667)"><rect width="6" height="6"/></g>
<g transform="translate(770,858) scale(3.6666666666667)"><rect width="6" height="6"/></g>
<g transform="translate(814,858) scale(3.6666666666667)"><rect width="6" height="6"/></g>
<g transform="translate(902,858) scale(3.6666666666667)"><rect width="6" height="6"/></g>
<g transform="translate(220,880) scale(3.6666666666667)"><rect width="6" height="6"/></g>
<g transform="translate(264,880) scale(3.6666666666667)"><rect width="6" height="6"/></g>
<g transform="translate(308,880) scale(3.6666666666667)"><rect width="6" height="6"/></g>
<g transform="translate(330,880) scale(3.6666666666667)"><rect width="6" height="6"/></g>
<g transform="translate(352,880) scale(3.6666666666667)"><rect width="6" height="6"/></g>
<g transform="translate(374,880) scale(3.6666666666667)"><rect width="6" height="6"/></g>
<g transform="translate(418,880) scale(3.6666666666667)"><rect width="6" height="6"/></g>
<g transform="translate(440,880) scale(3.6666666666667)"><rect width="6" height="6"/></g>
<g transform="translate(484,880) scale(3.6666666666667)"><rect width="6" height="6"/></g>
<g transform="translate(506,880) scale(3.6666666666667)"><rect width="6" height="6"/></g>
<g transform="translate(528,880) scale(3.6666666666667)"><rect width="6" height="6"/></g>
<g transform="translate(616,880) scale(3.6666666666667)"><rect width="6" height="6"/></g>
<g transform="translate(638,880) scale(3.6666666666667)"><rect width="6" height="6"/></g>
<g transform="translate(682,880) scale(3.6666666666667)"><rect width="6" height="6"/></g>
<g transform="translate(704,880) scale(3.6666666666667)"><rect width="6" height="6"/></g>
<g transform="translate(726,880) scale(3.6666666666667)"><rect width="6" height="6"/></g>
<g transform="translate(770,880) scale(3.6666666666667)"><rect width="6" height="6"/></g>
<g transform="translate(792,880) scale(3.6666666666667)"><rect width="6" height="6"/></g>
<g transform="translate(814,880) scale(3.6666666666667)"><rect width="6" height="6"/></g>
<g transform="translate(836,880) scale(3.6666666666667)"><rect width="6" height="6"/></g>
<g transform="translate(902,880) scale(3.6666666666667)"><rect width="6" height="6"/></g>
<g transform="translate(242,902) scale(3.6666666666667)"><rect width="6" height="6"/></g>
<g transform="translate(264,902) scale(3.6666666666667)"><rect width="6" height="6"/></g>
<g transform="translate(418,902) scale(3.6666666666667)"><rect width="6" height="6"/></g>
<g transform="translate(440,902) scale(3.6666666666667)"><rect width="6" height="6"/></g>
<g transform="translate(484,902) scale(3.6666666666667)"><rect width="6" height="6"/></g>
<g transform="translate(506,902) scale(3.6666666666667)"><rect width="6" height="6"/></g>
<g transform="translate(550,902) scale(3.6666666666667)"><rect width="6" height="6"/></g>
<g transform="translate(638,902) scale(3.6666666666667)"><rect width="6" height="6"/></g>
<g transform="translate(660,902) scale(3.6666666666667)"><rect width="6" height="6"/></g>
<g transform="translate(726,902) scale(3.6666666666667)"><rect width="6" height="6"/></g>
<g transform="translate(792,902) scale(3.6666666666667)"><rect width="6" height="6"/></g>
<g transform="translate(836,902) scale(3.6666666666667)"><rect width="6" height="6"/></g>
<g transform="translate(902,902) scale(3.6666666666667)"><rect width="6" height="6"/></g>
<g transform="translate(242,924) scale(3.6666666666667)"><rect width="6" height="6"/></g>
<g transform="translate(286,924) scale(3.6666666666667)"><rect width="6" height="6"/></g>
<g transform="translate(352,924) scale(3.6666666666667)"><rect width="6" height="6"/></g>
<g transform="translate(440,924) scale(3.6666666666667)"><rect width="6" height="6"/></g>
<g transform="translate(462,924) scale(3.6666666666667)"><rect width="6" height="6"/></g>
<g transform="translate(528,924) scale(3.6666666666667)"><rect width="6" height="6"/></g>
<g transform="translate(550,924) scale(3.6666666666667)"><rect width="6" height="6"/></g>
<g transform="translate(616,924) scale(3.6666666666667)"><rect width="6" height="6"/></g>
<g transform="translate(682,924) scale(3.6666666666667)"><rect width="6" height="6"/></g>
<g transform="translate(704,924) scale(3.6666666666667)"><rect width="6" height="6"/></g>
<g transform="translate(748,924) scale(3.6666666666667)"><rect width="6" height="6"/></g>
<g transform="translate(770,924) scale(3.6666666666667)"><rect width="6" height="6"/></g>
<g transform="translate(814,924) scale(3.6666666666667)"><rect width="6" height="6"/></g>
<g transform="translate(836,924) scale(3.6666666666667)"><rect width="6" height="6"/></g>
</g></mask></defs>
<rect width="990" height="990" fill="#ffffff" x="0" y="0" />
<rect x="0" y="0" width="990" height="990" mask="url(#qrmask)" fill="#000000" />
<g transform="translate(44,44)"  fill="#000000"><g transform="scale(11)"><path d="M0,0v14h14V0H0z M12,12H2V2h10V12z"/></g></g>
<g transform="translate(792,44)"  fill="#000000"><g transform="scale(11)"><path d="M0,0v14h14V0H0z M12,12H2V2h10V12z"/></g></g>
<g transform="translate(44,792)"  fill="#000000"><g transform="scale(11)"><path d="M0,0v14h14V0H0z M12,12H2V2h10V12z"/></g></g>
<g transform="translate(88,88)"  fill="#000000"><g transform="scale(11)"><rect width="6" height="6"/></g></g>
<g transform="translate(836,88)"  fill="#000000"><g transform="scale(11)"><rect width="6" height="6"/></g></g>
<g transform="translate(88,836)"  fill="#000000"><g transform="scale(11)"><rect width="6" height="6"/></g></g>
</svg>